<svg xmlns="http://www.w3.org/2000/svg" xmlns:xlink="http://www.w3.org/1999/xlink" contentStyleType="text/css" height="755px" preserveAspectRatio="none" style="width:1193px;height:755px;background:#FFFFFF;" version="1.1" viewBox="0 0 1193 755" width="1193px" zoomAndPan="magnify"><defs/><g><!--cluster ??????? 1?: TaskMaster--><g id="cluster_&#1057;&#1080;&#1089;&#1090;&#1077;&#1084;&#1072; 1&#1057;: TaskMaster"><rect fill="none" height="742" rx="2.5" ry="2.5" style="stroke:#181818;stroke-width:1.0;" width="663.86" x="285.17" y="7"/><text fill="#000000" font-family="sans-serif" font-size="14" font-weight="bold" lengthAdjust="spacing" textLength="193.6895" x="520.2553" y="21.9951">&#1057;&#1080;&#1089;&#1090;&#1077;&#1084;&#1072; 1&#1057;: TaskMaster</text></g><g id="elem_UC_CreateTask"><ellipse cx="434.2991" cy="230.0018" fill="#F1F1F1" rx="78.8591" ry="18.1718" style="stroke:#181818;stroke-width:0.5;"/><text fill="#000000" font-family="sans-serif" font-size="14" lengthAdjust="spacing" textLength="115.7393" x="374.3225" y="233.5091">&#1057;&#1086;&#1079;&#1076;&#1072;&#1090;&#1100; &#1079;&#1072;&#1076;&#1072;&#1095;&#1091;</text></g><g id="elem_UC_ViewTasks"><ellipse cx="434.2974" cy="62.9995" fill="#F1F1F1" rx="94.9974" ry="21.3995" style="stroke:#181818;stroke-width:0.5;"/><text fill="#000000" font-family="sans-serif" font-size="14" lengthAdjust="spacing" textLength="152.9678" x="357.8135" y="65.8462">&#1055;&#1088;&#1086;&#1089;&#1084;&#1086;&#1090;&#1088;&#1077;&#1090;&#1100; &#1079;&#1072;&#1076;&#1072;&#1095;&#1080;</text></g><g id="elem_UC_EditTask"><ellipse cx="434.2979" cy="462.9976" fill="#F1F1F1" rx="101.3379" ry="22.6676" style="stroke:#181818;stroke-width:0.5;"/><text fill="#000000" font-family="sans-serif" font-size="14" lengthAdjust="spacing" textLength="167.002" x="350.797" y="465.8443">&#1056;&#1077;&#1076;&#1072;&#1082;&#1090;&#1080;&#1088;&#1086;&#1074;&#1072;&#1090;&#1100; &#1079;&#1072;&#1076;&#1072;&#1095;&#1091;</text></g><g id="elem_UC_DeleteTask"><ellipse cx="434.3023" cy="538.9965" fill="#F1F1F1" rx="79.1823" ry="18.2365" style="stroke:#181818;stroke-width:0.5;"/><text fill="#000000" font-family="sans-serif" font-size="14" lengthAdjust="spacing" textLength="116.5322" x="374.056" y="542.4678">&#1059;&#1076;&#1072;&#1083;&#1080;&#1090;&#1100; &#1079;&#1072;&#1076;&#1072;&#1095;&#1091;</text></g><g id="elem_UC_ManageProjects"><ellipse cx="434.3002" cy="304.996" fill="#F1F1F1" rx="98.9302" ry="22.186" style="stroke:#181818;stroke-width:0.5;"/><text fill="#000000" font-family="sans-serif" font-size="14" lengthAdjust="spacing" textLength="161.6973" x="353.4516" y="307.8427">&#1059;&#1087;&#1088;&#1072;&#1074;&#1083;&#1103;&#1090;&#1100; &#1087;&#1088;&#1086;&#1077;&#1082;&#1090;&#1072;&#1084;&#1080;</text></g><g id="elem_UC_ManageUsers"><ellipse cx="434.2979" cy="617.9996" fill="#F1F1F1" rx="118.0479" ry="26.0096" style="stroke:#181818;stroke-width:0.5;"/><text fill="#000000" font-family="sans-serif" font-size="14" lengthAdjust="spacing" textLength="203.1846" x="332.7056" y="620.8463">&#1059;&#1087;&#1088;&#1072;&#1074;&#1083;&#1103;&#1090;&#1100; &#1087;&#1086;&#1083;&#1100;&#1079;&#1086;&#1074;&#1072;&#1090;&#1077;&#1083;&#1103;&#1084;&#1080;</text></g><g id="elem_UC_ViewReports"><ellipse cx="434.2987" cy="384.0037" fill="#F1F1F1" rx="95.5187" ry="21.5037" style="stroke:#181818;stroke-width:0.5;"/><text fill="#000000" font-family="sans-serif" font-size="14" lengthAdjust="spacing" textLength="154.1299" x="357.2338" y="386.8504">&#1055;&#1088;&#1086;&#1089;&#1084;&#1086;&#1090;&#1088;&#1077;&#1090;&#1100; &#1086;&#1090;&#1095;&#1077;&#1090;&#1099;</text></g><g id="elem_UC_SendToGitLab"><ellipse cx="812.7301" cy="463" fill="#F1F1F1" rx="120.3001" ry="26.46" style="stroke:#181818;stroke-width:0.5;"/><text fill="#000000" font-family="sans-serif" font-size="14" font-style="italic" lengthAdjust="spacing" textLength="73.8691" x="770.2212" y="453.9316">&#171;optional&#187;</text><text fill="#000000" font-family="sans-serif" font-size="14" lengthAdjust="spacing" textLength="197.4834" x="708.4141" y="470.2284">&#1054;&#1090;&#1087;&#1088;&#1072;&#1074;&#1080;&#1090;&#1100; &#1079;&#1072;&#1076;&#1072;&#1095;&#1091; &#1074; GitLab</text></g><g id="elem_UC_SyncWithGitLab"><ellipse cx="434.2991" cy="705.9978" fill="#F1F1F1" rx="121.3891" ry="26.6778" style="stroke:#181818;stroke-width:0.5;"/><text fill="#000000" font-family="sans-serif" font-size="14" font-style="italic" lengthAdjust="spacing" textLength="73.8691" x="391.8905" y="696.6881">&#171;optional&#187;</text><text fill="#000000" font-family="sans-serif" font-size="14" lengthAdjust="spacing" textLength="201.3389" x="328.1556" y="712.985">&#1057;&#1080;&#1085;&#1093;&#1088;&#1086;&#1085;&#1080;&#1079;&#1080;&#1088;&#1086;&#1074;&#1072;&#1090;&#1100; &#1089; GitLab</text></g><g id="elem_UC_SetupGitLab"><ellipse cx="434.3001" cy="147.996" fill="#F1F1F1" rx="133.1301" ry="29.026" style="stroke:#181818;stroke-width:0.5;"/><text fill="#000000" font-family="sans-serif" font-size="14" font-style="italic" lengthAdjust="spacing" textLength="73.8691" x="394.9929" y="135.9826">&#171;optional&#187;</text><text fill="#000000" font-family="sans-serif" font-size="14" lengthAdjust="spacing" textLength="234.7119" x="314.5715" y="152.2795">&#1053;&#1072;&#1089;&#1090;&#1088;&#1086;&#1080;&#1090;&#1100; &#1080;&#1085;&#1090;&#1077;&#1075;&#1088;&#1072;&#1094;&#1080;&#1102; &#1089; GitLab</text></g><!--entity Manager--><g id="elem_Manager"><ellipse cx="90.0855" cy="63.35" fill="#F1F1F1" rx="8" ry="8" style="stroke:#181818;stroke-width:0.5;"/><path d="M90.0855,71.35 L90.0855,98.35 M77.0855,79.35 L103.0855,79.35 M90.0855,98.35 L77.0855,113.35 M90.0855,98.35 L103.0855,113.35 " fill="none" style="stroke:#181818;stroke-width:0.5;"/><text fill="#000000" font-family="sans-serif" font-size="14" lengthAdjust="spacing" textLength="78.251" x="50.96" y="127.8451">&#1052;&#1077;&#1085;&#1077;&#1076;&#1078;&#1077;&#1088;</text></g><!--entity Lead--><g id="elem_Lead"><ellipse cx="90.0854" cy="393.35" fill="#F1F1F1" rx="8" ry="8" style="stroke:#181818;stroke-width:0.5;"/><path d="M90.0854,401.35 L90.0854,428.35 M77.0854,409.35 L103.0854,409.35 M90.0854,428.35 L77.0854,443.35 M90.0854,428.35 L103.0854,443.35 " fill="none" style="stroke:#181818;stroke-width:0.5;"/><text fill="#000000" font-family="sans-serif" font-size="14" lengthAdjust="spacing" textLength="168.1709" x="6" y="457.8451">&#1056;&#1091;&#1082;&#1086;&#1074;&#1086;&#1076;&#1080;&#1090;&#1077;&#1083;&#1100; &#1087;&#1088;&#1086;&#1077;&#1082;&#1090;&#1072;</text></g><!--entity GL--><g id="elem_GL"><ellipse cx="1152.9021" cy="597.4969" fill="#F1F1F1" rx="8" ry="8" style="stroke:#181818;stroke-width:0.5;"/><path d="M1152.9021,605.4969 L1152.9021,632.4969 M1139.9021,613.4969 L1165.9021,613.4969 M1152.9021,632.4969 L1139.9021,647.4969 M1152.9021,632.4969 L1165.9021,647.4969 " fill="none" style="stroke:#181818;stroke-width:0.5;"/><text fill="#000000" font-family="sans-serif" font-size="14" lengthAdjust="spacing" textLength="45.4932" x="1130.1555" y="661.992">GitLab</text><text fill="#000000" font-family="sans-serif" font-size="14" font-style="italic" lengthAdjust="spacing" textLength="67.7441" x="1119.03" y="585.6951">&#171;system&#187;</text></g><!--link Manager to UC_CreateTask--><g id="link_Manager_UC_CreateTask"><path d="M129.47,118.24 C166.06,141.27 223.4,174.7 277.17,195 C306.28,205.99 339.8,214.06 368.3,219.67 " fill="none" id="Manager-UC_CreateTask" style="stroke:#181818;stroke-width:1.0;"/></g><!--link Manager to UC_ViewTasks--><g id="link_Manager_UC_ViewTasks"><path d="M129.68,89.62 C181.59,85.07 275.44,76.84 345.11,70.73 " fill="none" id="Manager-UC_ViewTasks" style="stroke:#181818;stroke-width:1.0;"/></g><!--link Lead to UC_CreateTask--><g id="link_Lead_UC_CreateTask"><path d="M105.44,384.69 C122.49,345.01 154.97,284.73 204.17,255 C251.09,226.65 313.41,221.48 361.22,222.81 " fill="none" id="Lead-UC_CreateTask" style="stroke:#181818;stroke-width:1.0;"/></g><!--link Lead to UC_ViewTasks--><g id="link_Lead_UC_ViewTasks"><path d="M101.88,384.39 C123.19,315.7 177.48,172.76 277.17,101 C297.55,86.33 322.89,77.28 347.2,71.71 " fill="none" id="Lead-UC_ViewTasks" style="stroke:#181818;stroke-width:1.0;"/></g><!--link Lead to UC_EditTask--><g id="link_Lead_UC_EditTask"><path d="M174.36,432.73 C225.61,438.72 291.27,446.4 343.64,452.52 " fill="none" id="Lead-UC_EditTask" style="stroke:#181818;stroke-width:1.0;"/></g><!--link Lead to UC_DeleteTask--><g id="link_Lead_UC_DeleteTask"><path d="M171.85,461.47 C204.11,475.84 241.91,491.46 277.17,503 C307.84,513.04 342.77,521.37 371.81,527.48 " fill="none" id="Lead-UC_DeleteTask" style="stroke:#181818;stroke-width:1.0;"/></g><!--link Lead to UC_ManageProjects--><g id="link_Lead_UC_ManageProjects"><path d="M174.39,385.02 C206.16,371.35 242.97,356.48 277.17,345 C304.89,335.69 336,327.32 363.1,320.67 " fill="none" id="Lead-UC_ManageProjects" style="stroke:#181818;stroke-width:1.0;"/></g><!--link Lead to UC_ManageUsers--><g id="link_Lead_UC_ManageUsers"><path d="M128.3,461.45 C163.63,495.86 219.73,545.32 277.17,575 C298.28,585.9 322.46,594.29 345.39,600.64 " fill="none" id="Lead-UC_ManageUsers" style="stroke:#181818;stroke-width:1.0;"/></g><!--link Lead to UC_ViewReports--><g id="link_Lead_UC_ViewReports"><path d="M174.36,413.51 C227.09,407.5 295.08,399.75 348.16,393.7 " fill="none" id="Lead-UC_ViewReports" style="stroke:#181818;stroke-width:1.0;"/></g><!--link Lead to UC_SyncWithGitLab--><g id="link_Lead_UC_SyncWithGitLab"><path d="M110.17,461.57 C138.79,515.23 198.04,611.51 277.17,662 C295.93,673.97 317.97,682.74 339.5,689.15 " fill="none" id="Lead-UC_SyncWithGitLab" style="stroke:#181818;stroke-width:1.0;"/></g><!--link UC_ManageProjects to UC_SetupGitLab--><g id="link_UC_ManageProjects_UC_SetupGitLab"><path d="M346.23,315.45 C308.16,314.76 266.59,306.01 241.11,276.5 C218.68,250.52 230.25,231.64 277.17,194 C292.36,181.82 305.0121,174.8571 323.6821,168.2671 " fill="none" id="UC_ManageProjects-to-UC_SetupGitLab" style="stroke:#181818;stroke-width:1.0;stroke-dasharray:7.0,7.0;"/><polygon fill="#181818" points="329.34,166.27,319.5218,165.4937,324.6251,167.9342,322.1846,173.0375,329.34,166.27" style="stroke:#181818;stroke-width:1.0;"/><text fill="#000000" font-family="sans-serif" font-size="13" lengthAdjust="spacing" textLength="63.0068" x="205.17" y="272.5669">&#171;include&#187;</text></g><!--link UC_CreateTask to UC_SendToGitLab--><g id="link_UC_CreateTask_UC_SendToGitLab"><path d="M498.12,240.94 C520.74,246.33 545.96,254.09 567.43,265 C657.96,310.99 741.7189,390.3764 783.0389,432.7064 " fill="none" id="UC_CreateTask-to-UC_SendToGitLab" style="stroke:#181818;stroke-width:1.0;stroke-dasharray:7.0,7.0;"/><polygon fill="#181818" points="787.23,437,783.8057,427.7656,783.7374,433.422,778.081,433.3537,787.23,437" style="stroke:#181818;stroke-width:1.0;"/><text fill="#000000" font-family="sans-serif" font-size="13" lengthAdjust="spacing" textLength="63.0068" x="598.43" y="281.9969">&#171;include&#187;</text></g><!--link UC_EditTask to UC_SendToGitLab--><g id="link_UC_EditTask_UC_SendToGitLab"><path d="M535.68,463 C583.82,463 635.83,463 686.22,463 " fill="none" id="UC_EditTask-to-UC_SendToGitLab" style="stroke:#181818;stroke-width:1.0;stroke-dasharray:7.0,7.0;"/><polygon fill="#181818" points="692.22,463,683.22,459,687.22,463,683.22,467,692.22,463" style="stroke:#181818;stroke-width:1.0;"/><text fill="#000000" font-family="sans-serif" font-size="13" lengthAdjust="spacing" textLength="63.0068" x="598.43" y="459.0669">&#171;include&#187;</text></g><!--link UC_ViewReports to UC_ViewTasks--><g id="link_UC_ViewReports_UC_ViewTasks"><path d="M346.34,375.19 C303.24,365.4 257.36,344.97 242.11,302.5 C230.66,270.64 174.8,208.56 277.17,101 C294,83.31 311.6985,74.63 335.4485,69.06 " fill="none" id="UC_ViewReports-to-UC_ViewTasks" style="stroke:#181818;stroke-width:1.0;stroke-dasharray:7.0,7.0;"/><polygon fill="#181818" points="341.29,67.69,331.6144,65.8506,336.4221,68.8317,333.4411,73.6393,341.29,67.69" style="stroke:#181818;stroke-width:1.0;"/><text fill="#000000" font-family="sans-serif" font-size="13" lengthAdjust="spacing" textLength="61.1851" x="206.17" y="298.5669">&#171;extend&#187;</text></g><!--link UC_SendToGitLab to GL--><g id="link_UC_SendToGitLab_GL"><path d="M865.83,487.03 C936.23,519.51 1054.2617,573.9569 1113.2517,601.1669 " fill="none" id="UC_SendToGitLab-to-GL" style="stroke:#181818;stroke-width:1.0;stroke-dasharray:7.0,7.0;"/><polygon fill="#181818" points="1118.7,603.68,1112.2029,596.2781,1114.1597,601.5857,1108.8521,603.5425,1118.7,603.68" style="stroke:#181818;stroke-width:1.0;"/><text fill="#000000" font-family="sans-serif" font-size="13" lengthAdjust="spacing" textLength="122.0464" x="966.03" y="532.3869">&#1054;&#1090;&#1087;&#1088;&#1072;&#1074;&#1082;&#1072; &#1076;&#1072;&#1085;&#1085;&#1099;&#1093;</text></g><!--link UC_SyncWithGitLab to GL--><g id="link_UC_SyncWithGitLab_GL"><path d="M531.63,689.75 C553.25,686.33 576.1,682.88 597.43,680 C794.65,653.35 1026.5564,630.7421 1112.7364,622.6321 " fill="none" id="UC_SyncWithGitLab-to-GL" style="stroke:#181818;stroke-width:1.0;stroke-dasharray:7.0,7.0;"/><polygon fill="#181818" points="1118.71,622.07,1109.3748,618.9308,1113.732,622.5385,1110.1244,626.8956,1118.71,622.07" style="stroke:#181818;stroke-width:1.0;"/><text fill="#000000" font-family="sans-serif" font-size="13" lengthAdjust="spacing" textLength="111.1602" x="757.23" y="634.6269">&#1054;&#1073;&#1084;&#1077;&#1085; &#1076;&#1072;&#1085;&#1085;&#1099;&#1084;&#1080;</text></g><!--reverse link UC_SyncWithGitLab to GL--><g id="link_UC_SyncWithGitLab_GL"><path d="M557.6653,713.4965 C664.1253,717.6965 819.52,717.65 957.03,692 C1016.16,680.97 1080.81,653.41 1118.78,635.48 " fill="none" id="UC_SyncWithGitLab-backto-GL" style="stroke:#181818;stroke-width:1.0;stroke-dasharray:7.0,7.0;"/><polygon fill="#181818" points="551.67,713.26,560.5053,717.6117,556.6661,713.4571,560.8207,709.6179,551.67,713.26" style="stroke:#181818;stroke-width:1.0;"/><text fill="#000000" font-family="sans-serif" font-size="13" lengthAdjust="spacing" textLength="130.3999" x="747.73" y="688.0669">&#1055;&#1086;&#1083;&#1091;&#1095;&#1077;&#1085;&#1080;&#1077; &#1076;&#1072;&#1085;&#1085;&#1099;&#1093;</text></g><!--SRC=[ZLJ1RjD04BtlLwnoRoIkKPHBGRsa4Yej7D5YBwd1sD7kHb0XfAHHwQ68_W3GLlq1apOaIaZuXTa_OdOTfxjse3rOiiVptioyVRCnVwseIgc8EeUAXf7WWOhIX10Mg5JG6do3CIpmkOLVCDRz6cMIxhA4TRXOvrpg8SnW2IDyRc6gZp5_hhzG-AFx61h334EPXROv2mlSJgJQx9KDxxHfiocFfEBlMYr2J1SiwSGSoQ-GS60fVqD67y5LW-up-NQNORAeqO-4qfxa0PDvyX8cs4EcZqtz2MJsurGFRPc3xPVRWZF53OC7l32TwW7MM2AqZwFw130j29v7_Bs1Imz_QINAxAHJE_NeFqqy2IDLQU7Q4ioDVl-0FUOntz3xjTKvmufpVPw3FU5ng7Nt-T4z5UaRb5ZUIuCaU93OoseUUx3dLS83oOLyYA3cuzH-dBc2xl5kAahz_C1oHKTLJIYCg6CWv7d6at0_pMFefhHhZCnYz9Fla2aiz8dLPu7laz9nwK6PzYW9NaJgy3xYxqWmiACkYtPD9IFPZPb2VyRmrmtyNFMwcyW_4R9QDBgrLRAk_-FEaiJiLpNTYTxbEi6r7vsOOpOdMl9FvKzkX5AzudITiAyg8HLgMc-LrMcWFb4InBsGeppUXBHUf3iUgEGNOpuis-byrSnQEvlCFoZ4c-kgJ6NeyKPhKC_3Cxo-x8elq1Pd-eHKpUK0uIUk3bwz3iIitGPGirvVWIxikWxDWbblZ_rwVm40]--></g></svg>