<svg xmlns="http://www.w3.org/2000/svg" xmlns:xlink="http://www.w3.org/1999/xlink" contentStyleType="text/css" height="778px" preserveAspectRatio="none" style="width:764px;height:778px;background:#FFFFFF;" version="1.1" viewBox="0 0 764 778" width="764px" zoomAndPan="magnify"><defs/><g><ellipse cx="486.4739" cy="20" fill="#222222" rx="10" ry="10" style="stroke:#222222;stroke-width:1.0;"/><rect fill="#F1F1F1" height="33.9688" rx="12.5" ry="12.5" style="stroke:#181818;stroke-width:0.5;" width="91.127" x="440.9104" y="50"/><text fill="#000000" font-family="sans-serif" font-size="12" lengthAdjust="spacing" textLength="71.127" x="450.9104" y="71.1387">&#1048;&#1085;&#1080;&#1094;&#1080;&#1072;&#1094;&#1080;&#1103;</text><rect fill="#F1F1F1" height="33.9688" rx="12.5" ry="12.5" style="stroke:#181818;stroke-width:0.5;" width="155" x="408.9739" y="103.9688"/><text fill="#000000" font-family="sans-serif" font-size="12" lengthAdjust="spacing" textLength="135" x="418.9739" y="125.1074">&#1054;&#1090;&#1086;&#1073;&#1088;&#1072;&#1078;&#1077;&#1085;&#1080;&#1077; &#1060;&#1086;&#1088;&#1084;&#1099;</text><rect fill="#F1F1F1" height="33.9688" rx="12.5" ry="12.5" style="stroke:#181818;stroke-width:0.5;" width="103.7539" x="434.5969" y="157.9375"/><text fill="#000000" font-family="sans-serif" font-size="12" lengthAdjust="spacing" textLength="83.7539" x="444.5969" y="179.0762">&#1042;&#1074;&#1086;&#1076; &#1044;&#1072;&#1085;&#1085;&#1099;&#1093;</text><rect fill="#F1F1F1" height="33.9688" rx="12.5" ry="12.5" style="stroke:#181818;stroke-width:0.5;" width="96.0488" x="438.4495" y="211.9063"/><text fill="#000000" font-family="sans-serif" font-size="12" lengthAdjust="spacing" textLength="76.0488" x="448.4495" y="233.0449">&#1057;&#1086;&#1093;&#1088;&#1072;&#1085;&#1077;&#1085;&#1080;&#1077;</text><polygon fill="#F1F1F1" points="427.5691,265.875,545.3787,265.875,557.3787,277.875,545.3787,289.875,427.5691,289.875,415.5691,277.875,427.5691,265.875" style="stroke:#181818;stroke-width:0.5;"/><text fill="#000000" font-family="sans-serif" font-size="11" lengthAdjust="spacing" textLength="117.8096" x="427.5691" y="281.6831">&#1042;&#1072;&#1083;&#1080;&#1076;&#1072;&#1094;&#1080;&#1103; (&#1057;&#1077;&#1088;&#1074;&#1077;&#1088;)</text><text fill="#000000" font-family="sans-serif" font-size="11" lengthAdjust="spacing" textLength="15.8716" x="399.6975" y="275.2808">OK</text><text fill="#000000" font-family="sans-serif" font-size="11" lengthAdjust="spacing" textLength="46.041" x="557.3787" y="275.2808">&#1054;&#1096;&#1080;&#1073;&#1082;&#1072;</text><rect fill="#F1F1F1" height="33.9688" rx="12.5" ry="12.5" style="stroke:#181818;stroke-width:0.5;" width="212.9141" x="205.7798" y="299.875"/><text fill="#000000" font-family="sans-serif" font-size="12" lengthAdjust="spacing" textLength="192.9141" x="215.7798" y="321.0137">&#1057;&#1086;&#1079;&#1076;&#1072;&#1085;&#1080;&#1077; &#1044;&#1086;&#1082;&#1091;&#1084;&#1077;&#1085;&#1090;&#1072; (&#1057;&#1077;&#1088;&#1074;&#1077;&#1088;)</text><rect fill="#F1F1F1" height="33.9688" rx="12.5" ry="12.5" style="stroke:#181818;stroke-width:0.5;" width="230.9258" x="196.7739" y="353.8438"/><text fill="#000000" font-family="sans-serif" font-size="12" lengthAdjust="spacing" textLength="210.9258" x="206.7739" y="374.9824">&#1047;&#1072;&#1087;&#1086;&#1083;&#1085;&#1077;&#1085;&#1080;&#1077; &#1056;&#1077;&#1082;&#1074;&#1080;&#1079;&#1080;&#1090;&#1086;&#1074; (&#1057;&#1077;&#1088;&#1074;&#1077;&#1088;)</text><rect fill="#F1F1F1" height="33.9688" rx="12.5" ry="12.5" style="stroke:#181818;stroke-width:0.5;" width="229.2793" x="197.5972" y="407.8125"/><text fill="#000000" font-family="sans-serif" font-size="12" lengthAdjust="spacing" textLength="209.2793" x="207.5972" y="428.9512">&#1055;&#1088;&#1086;&#1074;&#1077;&#1076;&#1077;&#1085;&#1080;&#1077; &#1044;&#1086;&#1082;&#1091;&#1084;&#1077;&#1085;&#1090;&#1072; (&#1057;&#1077;&#1088;&#1074;&#1077;&#1088;)</text><rect fill="#F1F1F1" height="33.9688" rx="12.5" ry="12.5" style="stroke:#181818;stroke-width:0.5;" width="185.9258" x="219.2739" y="461.7813"/><text fill="#000000" font-family="sans-serif" font-size="12" lengthAdjust="spacing" textLength="165.9258" x="229.2739" y="482.9199">&#1047;&#1072;&#1087;&#1080;&#1089;&#1100; &#1074; &#1056;&#1077;&#1075;&#1080;&#1089;&#1090;&#1088; &#1048;&#1089;&#1090;&#1086;&#1088;&#1080;&#1080;</text><polygon fill="#F1F1F1" points="235.7712,515.75,388.7024,515.75,400.7024,527.75,388.7024,539.75,235.7712,539.75,223.7712,527.75,235.7712,515.75" style="stroke:#181818;stroke-width:0.5;"/><text fill="#000000" font-family="sans-serif" font-size="11" lengthAdjust="spacing" textLength="152.9312" x="235.7712" y="531.5581">&#1055;&#1088;&#1086;&#1074;&#1077;&#1088;&#1082;&#1072; &#1053;&#1072;&#1089;&#1090;&#1088;&#1086;&#1077;&#1082; GitLab</text><text fill="#000000" font-family="sans-serif" font-size="11" lengthAdjust="spacing" textLength="15.8716" x="207.8997" y="525.1558">OK</text><text fill="#000000" font-family="sans-serif" font-size="11" lengthAdjust="spacing" textLength="46.041" x="400.7024" y="525.1558">&#1054;&#1096;&#1080;&#1073;&#1082;&#1072;</text><rect fill="#F1F1F1" height="33.9688" rx="12.5" ry="12.5" style="stroke:#181818;stroke-width:0.5;" width="134.6211" x="100.9082" y="549.75"/><text fill="#000000" font-family="sans-serif" font-size="12" lengthAdjust="spacing" textLength="114.6211" x="110.9082" y="570.8887">&#1054;&#1090;&#1087;&#1088;&#1072;&#1074;&#1082;&#1072; &#1074; GitLab</text><polygon fill="#F1F1F1" points="94.8818,603.7188,241.5557,603.7188,253.5557,615.7188,241.5557,627.7188,94.8818,627.7188,82.8818,615.7188,94.8818,603.7188" style="stroke:#181818;stroke-width:0.5;"/><text fill="#000000" font-family="sans-serif" font-size="11" lengthAdjust="spacing" textLength="146.6738" x="94.8818" y="619.5269">&#1054;&#1073;&#1088;&#1072;&#1073;&#1086;&#1090;&#1082;&#1072; &#1054;&#1090;&#1074;&#1077;&#1090;&#1072; GitLab</text><text fill="#000000" font-family="sans-serif" font-size="11" lengthAdjust="spacing" textLength="15.8716" x="67.0103" y="613.1245">OK</text><text fill="#000000" font-family="sans-serif" font-size="11" lengthAdjust="spacing" textLength="46.041" x="253.5557" y="613.1245">&#1054;&#1096;&#1080;&#1073;&#1082;&#1072;</text><rect fill="#F1F1F1" height="33.9688" rx="12.5" ry="12.5" style="stroke:#181818;stroke-width:0.5;" width="123.7637" x="11" y="637.7188"/><text fill="#000000" font-family="sans-serif" font-size="12" lengthAdjust="spacing" textLength="103.7637" x="21" y="658.8574">&#1047;&#1072;&#1087;&#1080;&#1089;&#1100; ID GitLab</text><rect fill="#F1F1F1" height="33.9688" rx="12.5" ry="12.5" style="stroke:#181818;stroke-width:0.5;" width="98.5098" x="23.627" y="691.6875"/><text fill="#000000" font-family="sans-serif" font-size="12" lengthAdjust="spacing" textLength="78.5098" x="33.627" y="712.8262">&#1047;&#1072;&#1074;&#1077;&#1088;&#1096;&#1077;&#1085;&#1080;&#1077;</text><rect fill="#F1F1F1" height="33.9688" rx="12.5" ry="12.5" style="stroke:#181818;stroke-width:0.5;" width="162.6992" x="182.2061" y="637.7188"/><text fill="#000000" font-family="sans-serif" font-size="12" lengthAdjust="spacing" textLength="142.6992" x="192.2061" y="658.8574">&#1057;&#1086;&#1086;&#1073;&#1097;&#1077;&#1085;&#1080;&#1077; &#1086;&#1073; &#1086;&#1096;&#1080;&#1073;&#1082;&#1077;</text><ellipse cx="263.5557" cy="702.6875" fill="none" rx="11" ry="11" style="stroke:#222222;stroke-width:1.0;"/><ellipse cx="263.5557" cy="702.6875" fill="#222222" rx="6" ry="6" style="stroke:#222222;stroke-width:1.0;"/><rect fill="#F1F1F1" height="33.9688" rx="12.5" ry="12.5" style="stroke:#181818;stroke-width:0.5;" width="162.6992" x="374.9053" y="549.75"/><text fill="#000000" font-family="sans-serif" font-size="12" lengthAdjust="spacing" textLength="142.6992" x="384.9053" y="570.8887">&#1057;&#1086;&#1086;&#1073;&#1097;&#1077;&#1085;&#1080;&#1077; &#1086;&#1073; &#1086;&#1096;&#1080;&#1073;&#1082;&#1077;</text><ellipse cx="456.2549" cy="614.7188" fill="none" rx="11" ry="11" style="stroke:#222222;stroke-width:1.0;"/><ellipse cx="456.2549" cy="614.7188" fill="#222222" rx="6" ry="6" style="stroke:#222222;stroke-width:1.0;"/><rect fill="#F1F1F1" height="33.9688" rx="12.5" ry="12.5" style="stroke:#181818;stroke-width:0.5;" width="186.2129" x="567.6045" y="299.875"/><text fill="#000000" font-family="sans-serif" font-size="12" lengthAdjust="spacing" textLength="166.2129" x="577.6045" y="321.0137">&#1057;&#1086;&#1086;&#1073;&#1097;&#1077;&#1085;&#1080;&#1077; &#1087;&#1086;&#1083;&#1100;&#1079;&#1086;&#1074;&#1072;&#1090;&#1077;&#1083;&#1102;</text><ellipse cx="660.7109" cy="364.8438" fill="none" rx="11" ry="11" style="stroke:#222222;stroke-width:1.0;"/><ellipse cx="660.7109" cy="364.8438" fill="#222222" rx="6" ry="6" style="stroke:#222222;stroke-width:1.0;"/><ellipse cx="486.4739" cy="756.6563" fill="none" rx="11" ry="11" style="stroke:#222222;stroke-width:1.0;"/><ellipse cx="486.4739" cy="756.6563" fill="#222222" rx="6" ry="6" style="stroke:#222222;stroke-width:1.0;"/><line style="stroke:#181818;stroke-width:1.0;" x1="486.4739" x2="486.4739" y1="30" y2="50"/><polygon fill="#181818" points="482.4739,40,486.4739,50,490.4739,40,486.4739,44" style="stroke:#181818;stroke-width:1.0;"/><line style="stroke:#181818;stroke-width:1.0;" x1="486.4739" x2="486.4739" y1="83.9688" y2="103.9688"/><polygon fill="#181818" points="482.4739,93.9688,486.4739,103.9688,490.4739,93.9688,486.4739,97.9688" style="stroke:#181818;stroke-width:1.0;"/><line style="stroke:#181818;stroke-width:1.0;" x1="486.4739" x2="486.4739" y1="137.9375" y2="157.9375"/><polygon fill="#181818" points="482.4739,147.9375,486.4739,157.9375,490.4739,147.9375,486.4739,151.9375" style="stroke:#181818;stroke-width:1.0;"/><line style="stroke:#181818;stroke-width:1.0;" x1="486.4739" x2="486.4739" y1="191.9063" y2="211.9063"/><polygon fill="#181818" points="482.4739,201.9063,486.4739,211.9063,490.4739,201.9063,486.4739,205.9063" style="stroke:#181818;stroke-width:1.0;"/><line style="stroke:#181818;stroke-width:1.0;" x1="312.2368" x2="312.2368" y1="333.8438" y2="353.8438"/><polygon fill="#181818" points="308.2368,343.8438,312.2368,353.8438,316.2368,343.8438,312.2368,347.8438" style="stroke:#181818;stroke-width:1.0;"/><line style="stroke:#181818;stroke-width:1.0;" x1="312.2368" x2="312.2368" y1="387.8125" y2="407.8125"/><polygon fill="#181818" points="308.2368,397.8125,312.2368,407.8125,316.2368,397.8125,312.2368,401.8125" style="stroke:#181818;stroke-width:1.0;"/><line style="stroke:#181818;stroke-width:1.0;" x1="312.2368" x2="312.2368" y1="441.7813" y2="461.7813"/><polygon fill="#181818" points="308.2368,451.7813,312.2368,461.7813,316.2368,451.7813,312.2368,455.7813" style="stroke:#181818;stroke-width:1.0;"/><line style="stroke:#181818;stroke-width:1.0;" x1="72.8818" x2="72.8818" y1="671.6875" y2="691.6875"/><polygon fill="#181818" points="68.8818,681.6875,72.8818,691.6875,76.8818,681.6875,72.8818,685.6875" style="stroke:#181818;stroke-width:1.0;"/><line style="stroke:#181818;stroke-width:1.0;" x1="263.5557" x2="263.5557" y1="671.6875" y2="691.6875"/><polygon fill="#181818" points="259.5557,681.6875,263.5557,691.6875,267.5557,681.6875,263.5557,685.6875" style="stroke:#181818;stroke-width:1.0;"/><line style="stroke:#181818;stroke-width:1.0;" x1="82.8818" x2="72.8818" y1="615.7188" y2="615.7188"/><line style="stroke:#181818;stroke-width:1.0;" x1="72.8818" x2="72.8818" y1="615.7188" y2="637.7188"/><polygon fill="#181818" points="68.8818,627.7188,72.8818,637.7188,76.8818,627.7188,72.8818,631.7188" style="stroke:#181818;stroke-width:1.0;"/><line style="stroke:#181818;stroke-width:1.0;" x1="253.5557" x2="263.5557" y1="615.7188" y2="615.7188"/><line style="stroke:#181818;stroke-width:1.0;" x1="263.5557" x2="263.5557" y1="615.7188" y2="637.7188"/><polygon fill="#181818" points="259.5557,627.7188,263.5557,637.7188,267.5557,627.7188,263.5557,631.7188" style="stroke:#181818;stroke-width:1.0;"/><line style="stroke:#181818;stroke-width:1.0;" x1="72.8818" x2="72.8818" y1="725.6563" y2="730.6563"/><line style="stroke:#181818;stroke-width:1.0;" x1="72.8818" x2="486.4739" y1="730.6563" y2="730.6563"/><line style="stroke:#181818;stroke-width:1.0;" x1="486.4739" x2="486.4739" y1="730.6563" y2="745.6563"/><polygon fill="#181818" points="482.4739,735.6563,486.4739,745.6563,490.4739,735.6563,486.4739,739.6563" style="stroke:#181818;stroke-width:1.0;"/><line style="stroke:#181818;stroke-width:1.0;" x1="168.2188" x2="168.2188" y1="583.7188" y2="603.7188"/><polygon fill="#181818" points="164.2188,593.7188,168.2188,603.7188,172.2188,593.7188,168.2188,597.7188" style="stroke:#181818;stroke-width:1.0;"/><line style="stroke:#181818;stroke-width:1.0;" x1="456.2549" x2="456.2549" y1="583.7188" y2="603.7188"/><polygon fill="#181818" points="452.2549,593.7188,456.2549,603.7188,460.2549,593.7188,456.2549,597.7188" style="stroke:#181818;stroke-width:1.0;"/><line style="stroke:#181818;stroke-width:1.0;" x1="223.7712" x2="168.2188" y1="527.75" y2="527.75"/><line style="stroke:#181818;stroke-width:1.0;" x1="168.2188" x2="168.2188" y1="527.75" y2="549.75"/><polygon fill="#181818" points="164.2188,539.75,168.2188,549.75,172.2188,539.75,168.2188,543.75" style="stroke:#181818;stroke-width:1.0;"/><line style="stroke:#181818;stroke-width:1.0;" x1="400.7024" x2="456.2549" y1="527.75" y2="527.75"/><line style="stroke:#181818;stroke-width:1.0;" x1="456.2549" x2="456.2549" y1="527.75" y2="549.75"/><polygon fill="#181818" points="452.2549,539.75,456.2549,549.75,460.2549,539.75,456.2549,543.75" style="stroke:#181818;stroke-width:1.0;"/><line style="stroke:#181818;stroke-width:1.0;" x1="312.2368" x2="312.2368" y1="495.75" y2="515.75"/><polygon fill="#181818" points="308.2368,505.75,312.2368,515.75,316.2368,505.75,312.2368,509.75" style="stroke:#181818;stroke-width:1.0;"/><line style="stroke:#181818;stroke-width:1.0;" x1="660.7109" x2="660.7109" y1="333.8438" y2="353.8438"/><polygon fill="#181818" points="656.7109,343.8438,660.7109,353.8438,664.7109,343.8438,660.7109,347.8438" style="stroke:#181818;stroke-width:1.0;"/><line style="stroke:#181818;stroke-width:1.0;" x1="415.5691" x2="312.2368" y1="277.875" y2="277.875"/><line style="stroke:#181818;stroke-width:1.0;" x1="312.2368" x2="312.2368" y1="277.875" y2="299.875"/><polygon fill="#181818" points="308.2368,289.875,312.2368,299.875,316.2368,289.875,312.2368,293.875" style="stroke:#181818;stroke-width:1.0;"/><line style="stroke:#181818;stroke-width:1.0;" x1="557.3787" x2="660.7109" y1="277.875" y2="277.875"/><line style="stroke:#181818;stroke-width:1.0;" x1="660.7109" x2="660.7109" y1="277.875" y2="299.875"/><polygon fill="#181818" points="656.7109,289.875,660.7109,299.875,664.7109,289.875,660.7109,293.875" style="stroke:#181818;stroke-width:1.0;"/><line style="stroke:#181818;stroke-width:1.0;" x1="486.4739" x2="486.4739" y1="245.875" y2="265.875"/><polygon fill="#181818" points="482.4739,255.875,486.4739,265.875,490.4739,255.875,486.4739,259.875" style="stroke:#181818;stroke-width:1.0;"/><!--SRC=[dP9HIiD048RVSufzRAvWNWKH1SzGiSM0L34vG8rKb1O5ATWNgmKFaCP6bxHfhp1p8_-PD0qjyK5VDjdPVxv_TcQ3i7aTEiuUZIWdotTaAPQLdpo9ZZcY9KsvIp5zKIeQIWrzq1AX1VTLz4m9H3D3GwXoohdFFJsOGDRJtBpCHTnlcmPoOfeZC2lj49jG2d4Yg-kQyBpLCOsJ8zSnHb7qBUgoX2426T_IGiYeCju1U9hsWeGLbFEg0aFl-CqWio1QlM1Ic_o6_L8Yy4t_uslvXWS6TBNyr7t4NKCZ-T4UMhAIeJtP-E6R0KolQ8vc88oIpO4V7ZTFjriZRZAbbVOvAHAJjTHJWSB7wobEOHiLAaaJDxb4FNhtAeVxM-3oM4lc-sh6SjIw25hYYxY5AnmhfanJdjL3rLTiiMp4QUaGX9TN1QzpvhUTtxb_eAwP1R6ULqlJbyG3F1iPKup6fTW_2bIH1T3H_ny0]--></g></svg>